<svg width="24" height="24" viewBox="0 0 24 24" fill="none" xmlns="http://www.w3.org/2000/svg">
<path d="M20.947 8.30502C20.9369 7.54764 20.7951 6.79779 20.528 6.08902C20.2963 5.49117 19.9425 4.94822 19.4892 4.49485C19.0358 4.04148 18.4928 3.68767 17.895 3.45602C17.1953 3.19338 16.4562 3.05136 15.709 3.03602C14.747 2.99302 14.442 2.98102 12 2.98102C9.55799 2.98102 9.24499 2.98102 8.28999 3.03602C7.54315 3.05147 6.80434 3.19349 6.10499 3.45602C5.50705 3.68751 4.96402 4.04126 4.51063 4.49465C4.05724 4.94804 3.70348 5.49108 3.47199 6.08902C3.20883 6.78815 3.06712 7.52713 3.05299 8.27402C3.00999 9.23702 2.99699 9.54202 2.99699 11.984C2.99699 14.426 2.99699 14.738 3.05299 15.694C3.06799 16.442 3.20899 17.18 3.47199 17.881C3.70387 18.4788 4.05789 19.0216 4.51143 19.4748C4.96497 19.928 5.50806 20.2816 6.10599 20.513C6.80343 20.7862 7.54237 20.9384 8.29099 20.963C9.25399 21.006 9.55899 21.019 12.001 21.019C14.443 21.019 14.756 21.019 15.711 20.963C16.4581 20.9483 17.1974 20.8066 17.897 20.544C18.4947 20.3121 19.0375 19.9582 19.4908 19.5049C19.9442 19.0515 20.2981 18.5087 20.53 17.911C20.793 17.211 20.934 16.473 20.949 15.724C20.992 14.762 21.005 14.457 21.005 12.014C21.003 9.57202 21.003 9.26202 20.947 8.30502ZM11.994 16.602C9.43999 16.602 7.37099 14.533 7.37099 11.979C7.37099 9.42502 9.43999 7.35602 11.994 7.35602C13.2201 7.35602 14.396 7.84308 15.2629 8.71006C16.1299 9.57704 16.617 10.7529 16.617 11.979C16.617 13.2051 16.1299 14.381 15.2629 15.248C14.396 16.115 13.2201 16.602 11.994 16.602ZM16.801 8.26302C16.204 8.26302 15.723 7.78102 15.723 7.18502C15.723 7.04352 15.7509 6.90341 15.805 6.77268C15.8592 6.64195 15.9385 6.52317 16.0386 6.42311C16.1386 6.32306 16.2574 6.24369 16.3882 6.18954C16.5189 6.13539 16.659 6.10752 16.8005 6.10752C16.942 6.10752 17.0821 6.13539 17.2128 6.18954C17.3436 6.24369 17.4623 6.32306 17.5624 6.42311C17.6625 6.52317 17.7418 6.64195 17.796 6.77268C17.8501 6.90341 17.878 7.04352 17.878 7.18502C17.878 7.78102 17.396 8.26302 16.801 8.26302Z" fill="black"/>
<path d="M11.994 14.982C13.6525 14.982 14.997 13.6375 14.997 11.979C14.997 10.3205 13.6525 8.97601 11.994 8.97601C10.3355 8.97601 8.991 10.3205 8.991 11.979C8.991 13.6375 10.3355 14.982 11.994 14.982Z" fill="black"/>
</svg>
