<svg width="400" height="305" viewBox="0 0 400 305" fill="none" xmlns="http://www.w3.org/2000/svg">
<path d="M33.3333 247.619C34.5963 247.619 35.8075 247.117 36.7005 246.224C37.5935 245.331 38.0952 244.12 38.0952 242.857V19.0476C38.0952 13.3524 41.9238 9.52381 47.619 9.52381H352.381C357.81 9.52381 361.905 13.981 361.905 19.8952V242.857C361.905 244.12 362.406 245.331 363.299 246.224C364.193 247.117 365.404 247.619 366.667 247.619C367.93 247.619 369.141 247.117 370.034 246.224C370.927 245.331 371.429 244.12 371.429 242.857V19.8952C371.429 8.73333 363.067 0 352.381 0H47.619C36.5809 0 28.5714 8.00952 28.5714 19.0476V242.857C28.5714 244.12 29.0731 245.331 29.9661 246.224C30.8592 247.117 32.0704 247.619 33.3333 247.619Z" fill="black" fill-opacity="0.2"/>
<path d="M61.9048 28.5714C60.6419 28.5714 59.4306 29.0731 58.5376 29.9661C57.6446 30.8592 57.1429 32.0704 57.1429 33.3333V242.857C57.1429 244.12 57.6446 245.331 58.5376 246.224C59.4306 247.117 60.6419 247.619 61.9048 247.619H338.095C339.358 247.619 340.569 247.117 341.462 246.224C342.355 245.331 342.857 244.12 342.857 242.857V33.3333C342.857 32.0704 342.355 30.8592 341.462 29.9661C340.569 29.0731 339.358 28.5714 338.095 28.5714H61.9048ZM333.333 238.095H66.6667V38.0952H333.333V238.095Z" fill="black" fill-opacity="0.2"/>
<path d="M395.238 266.667H4.7619C3.49897 266.667 2.28776 267.168 1.39473 268.061C0.501699 268.954 0 270.166 0 271.429L0 282.619C0 294.029 13.4095 304.762 23.8095 304.762H376.19C387.095 304.762 400 291.857 400 280.952V271.429C400 270.166 399.498 268.954 398.605 268.061C397.712 267.168 396.501 266.667 395.238 266.667ZM390.476 280.952C390.476 286.562 381.8 295.238 376.19 295.238H23.8095C17.8 295.238 9.52381 287.924 9.52381 282.619V276.19H390.476V280.952Z" fill="black" fill-opacity="0.2"/>
</svg>
